<svg xmlns="http://www.w3.org/2000/svg" width="86" height="85"><path fill="#0557ff" d="M.5 42.5C.5 19.028 19.528 0 43 0s42.5 19.028 42.5 42.5S66.472 85 43 85 .5 65.972.5 42.5z" opacity=".06"/><path fill="#2c61a9" d="M52.9 26.2v29.4H33.3V26.2zm-9.84 32.22c.369 0 .72.138.991.388a1.406 1.406 0 010 1.98c-.266.264-.62.41-.994.414a1.402 1.402 0 01-.987-.413 1.384 1.384 0 01-.413-.99c0-.37.15-.731.413-.99.27-.251.623-.389.99-.389zm12.639 3.48V24.1A2.11 2.11 0 0053.6 22h-21a2.114 2.114 0 00-2.101 2.1v37.8a2.113 2.113 0 002.1 2.1H53.6a2.11 2.11 0 002.099-2.1z"/></svg>