<svg xmlns="http://www.w3.org/2000/svg" width="146" height="24"><path fill="#b3b3b3" d="M15.925 9.368l10.074-.192-8.267 5.587 3.302 9.234-8.034-5.9-8.034 5.9 3.302-9.234L0 9.176l10.074.192L13 .016zm30-.02l10.074-.192-8.267 5.595 3.302 9.246L43 18.09l-8.034 5.907 3.302-9.246L30 9.156l10.074.193L43-.016zm30-.019l10.074-.192-8.267 5.602 3.302 9.258L73 18.083l-8.034 5.914 3.302-9.258L60 9.137l10.074.192L73-.047zm30-.019l10.074-.193-8.267 5.61 3.302 9.27L103 18.075l-8.034 5.922 3.302-9.27L90 9.117l10.074.193L103-.078zM133-.078l-2.925 9.388-10.074-.193 8.267 5.61-3.302 9.27L133 18.075l8.034 5.922-3.302-9.27L146 9.117l-10.074.193z"/></svg>