<svg xmlns="http://www.w3.org/2000/svg" width="122" height="18"><path fill="#ffa026" d="M18 6.876l-6.33-.79L9 0 6.33 6.086 0 6.876l4.68 4.55L3.437 18 9 14.726 14.563 18l-1.243-6.574zm26 0l-6.33-.79L35 0l-2.67 6.086-6.33.79 4.68 4.55L29.437 18 35 14.726 40.563 18l-1.243-6.574zm26 0l-6.33-.79L61 0l-2.67 6.086-6.33.79 4.68 4.55L55.437 18 61 14.726 66.563 18l-1.243-6.574zm26 0l-6.33-.79L87 0l-2.67 6.086-6.33.79 4.68 4.55L81.437 18 87 14.726 92.563 18l-1.243-6.574zm26 0l-6.33-.79L113 0l-2.67 6.086-6.33.79 4.68 4.55L107.437 18 113 14.726 118.563 18l-1.243-6.574z"/></svg>